<?xml version="1.0" encoding="utf-8"?>
<!-- Generator: Adobe Illustrator 27.9.0, SVG Export Plug-In . SVG Version: 6.00 Build 0)  -->
<svg version="1.1" id="Layer_1" xmlns="http://www.w3.org/2000/svg" xmlns:xlink="http://www.w3.org/1999/xlink" x="0px" y="0px"
	 viewBox="0 0 693.47 291.09" style="enable-background:new 0 0 693.47 291.09;" xml:space="preserve">
<style type="text/css">
	.st0{fill:none;stroke:#000000;stroke-width:8;stroke-miterlimit:10;}
	.st1{fill:#231F20;}
</style>
<g>
	<path class="st0" d="M-81.24,187.11c-10.85-0.82-17.1-7.59-17.1-27.95v-44.77c0-24.7-14.11-42.33-39.07-42.33
		c-12.76,0-27.41,6.24-45.86,21.71c-1.09,0.82-1.9,1.36-2.45,1.36c-0.82,0-1.36-1.09-1.36-2.98v-8.96c0-5.7-3.8-9.5-9.5-9.5h-3.26
		c-2.44,0-4.61,0.27-6.51,0.82c-15.2,4.07-34.73,7.33-49.12,7.33c-3.93,0-6.54,2.56-6.72,6.4c-6.34-4.6-14.02-8.19-23.15-10.29
		c0.82-5.43,4.34-8.96,10.04-8.96c7.33,0,15.2,5.97,25.78,5.97c14.38,0,22.52-11.67,22.52-23.34c0-11.13-7.87-22.25-25.24-22.25
		c-28.22,0-44.5,24.97-46.67,46.67c-1.36-0.27-2.45-0.27-3.53-0.27h-3.8c-15.64,0-28.82,3.43-39.1,9.35v-1.94
		c0-4.07-2.71-6.79-6.78-6.79h-49.66c-4.07,0-6.79,2.72-6.79,6.79v9.5c0,4.61,2.99,8.41,6.51,8.68c8.41,0.82,8.14,7.87,8.14,10.85
		c0,4.35-1.09,10.05-3.53,17.1L-408,160.52c-0.82,1.36-1.9,1.36-2.71,0l-15.74-31.48c-4.34-8.95-4.34-13.29-4.34-15.74
		c0-5.16,2.99-11.4,7.6-11.94c3.53-0.82,6.51-4.07,6.51-8.68v-9.5c0-4.07-2.71-6.79-6.79-6.79h-66.49V15.34c0-5.7-3.8-9.5-9.5-9.5
		c-5.7,0-9.23,0-10.04,0.27c-3.8,0.54-7.87,1.08-12.21,1.62c-13.3,1.63-21.98,2.72-26.05,2.99c-4.07,0.27-7.6,0.54-10.58,0.54
		c-4.07,0-6.79,2.71-6.79,6.79v9.5c0,4.61,2.99,8.41,6.51,8.68c10.85,0.82,17.1,7.6,17.1,27.96v25.54
		C-549.78,63.82-569.83,47-600.7,47c-15.2,0-27.41,6.24-35.82,15.2c-0.81,0.81-1.36,1.08-1.9,1.08s-0.82-0.81-0.82-2.17v-2.72
		c0-5.7-3.8-9.5-9.5-9.5h-3.26c-2.44,0-4.62,0.27-6.51,0.82c-14.38,4.07-29.31,7.33-43.69,7.33c-4.07,0-6.79,2.71-6.79,6.78v9.5
		c0,4.61,2.99,8.41,6.51,8.68c10.85,0.82,17.1,4.88,17.1,22.52v97.69c0,20.36-6.24,27.14-17.1,27.96c-3.53,0.27-6.51,4.07-6.51,8.68
		v9.5c0,4.62,2.71,6.79,6.79,6.79h85.21c4.07,0,6.78-2.17,6.78-6.79v-9.5c0-4.61-2.99-8.41-6.51-8.68
		c-13.3-0.82-17.1-7.6-17.1-27.96v-15.74c0-0.82,0.27-1.09,0.54-1.09s0.54,0,0.82,0.27c7.33,4.08,14.93,6.24,23.61,6.24
		c34.98,0,58.24-17.72,67.32-44.78v12.03c0,20.36-6.24,27.13-17.1,27.95c-3.53,0.27-6.51,4.08-6.51,8.69v9.5
		c0,4.61,2.72,6.79,6.79,6.79h85.21c4.07,0,6.78-2.17,6.78-6.79v-9.5c0-4.61-2.99-8.42-6.51-8.69c-10.86-0.82-17.1-7.59-17.1-27.95
		v-37.2c1.19,2.39,2.43,4.84,3.81,7.35l51.01,91.18c0.54,1.08,0.82,2.17,0.82,3.25c0,0.54,0,1.09-0.27,1.9
		c-5.43,16.28-12.48,24.69-18.18,24.69c-10.85,0-9.22-25.23-32.56-25.23c-17.37,0-27.14,12.48-27.14,26.05
		c0,16.28,13.02,31.48,40.98,31.48c32.29,0,52.1-33.1,65.67-69.2l32.84-84.13c1.1-2.95,2.32-6.06,3.7-9.09
		c-0.25,2.05-0.42,4.14-0.42,6.28c0,19.27,9.77,34.73,27.95,43.42c-16.01,5.16-30.93,14.11-30.93,32.83
		c0,13.3,6.79,22.25,20.35,27.41c-19.81,4.61-31.48,13.84-31.48,24.69c0,20.63,24.42,30.39,68.92,30.39
		c33.65,0,87.92-11.13,87.92-54.81c0-6.67-1.15-12.87-3.99-18.37h55.3c4.08,0,6.79-2.17,6.79-6.79v-9.5c0-4.61-2.98-8.42-6.51-8.69
		c-7.87-0.82-11.67-7.59-11.67-27.95v-35.01c0-1.63,0.54-2.71,1.63-3.53c11.13-10.04,19-13.84,24.15-13.84
		c9.77,0,11.4,11.4,11.4,22.52v29.85c0,20.36-3.53,27.13-8.96,27.95c-3.53,0.82-6.51,4.08-6.51,8.69v9.5c0,4.61,2.72,6.79,6.79,6.79
		h77.07c4.07,0,6.79-2.17,6.79-6.79v-9.5C-74.73,191.18-77.72,187.38-81.24,187.11z M-608.29,170.2
		c-14.11,0-25.51-22.25-25.51-35.01v-27.68c0-24.15,10.04-38.54,20.62-38.54c14.93,0,23.88,23.61,23.88,57.26
		C-589.3,150.93-595.27,170.2-608.29,170.2z M-308.12,91.23c9.23,0,14.93,22.25,14.93,41.78c0,15.2-3.53,29.04-11.13,29.04
		c-9.22,0-14.92-22.52-14.92-42.06C-319.24,104.8-315.72,91.23-308.12,91.23z M-333.35,184.57c0-4.07,5.16-6.78,17.1-7.87
		c3.25,0.27,6.51,0.54,10.04,0.54c39.35,0,63.5-21.44,63.5-50.75c0-6.03-1-11.7-2.91-16.92c4.52,2.93,7,8.64,7,19.73v29.85
		c0,20.36-6.24,27.13-17.1,27.95c-2.59,0.2-4.85,2.32-5.9,5.24c-9.02-2.03-20.21-3.15-34.01-3.15
		C-323.59,189.19-333.35,188.65-333.35,184.57z M-300.25,268.7c-22.52,0-31.21-7.06-31.21-16.82c0-6.24,4.34-12.48,11.67-16.55h4.61
		c33.65,0,45.86,4.88,45.86,15.47C-269.31,260.56-282.88,268.7-300.25,268.7z"/>
	<path class="st0" d="M-46.21,169.2c-13.29,0-21.98,9.5-21.98,22.79c0,13.3,8.69,22.8,21.98,22.8c13.03,0,21.71-9.5,21.71-22.8
		C-24.5,178.7-33.18,169.2-46.21,169.2z"/>
</g>
<g>
	<path class="st1" d="M632.23,187.11c-10.85-0.82-17.1-7.59-17.1-27.95v-44.77c0-24.7-14.11-42.33-39.07-42.33
		c-12.76,0-27.41,6.24-45.86,21.71c-1.09,0.82-1.9,1.36-2.45,1.36c-0.82,0-1.36-1.09-1.36-2.98v-8.96c0-5.7-3.8-9.5-9.5-9.5h-3.26
		c-2.44,0-4.61,0.27-6.51,0.82c-15.2,4.07-34.73,7.33-49.12,7.33c-3.93,0-6.54,2.56-6.72,6.4c-6.34-4.6-14.02-8.19-23.15-10.29
		c0.82-5.43,4.34-8.96,10.04-8.96c7.33,0,15.2,5.97,25.78,5.97c14.38,0,22.52-11.67,22.52-23.34c0-11.13-7.87-22.25-25.24-22.25
		c-28.22,0-44.5,24.97-46.67,46.67c-1.36-0.27-2.45-0.27-3.53-0.27h-3.8c-15.64,0-28.82,3.43-39.1,9.35v-1.94
		c0-4.07-2.71-6.79-6.78-6.79h-49.66c-4.07,0-6.79,2.72-6.79,6.79v9.5c0,4.61,2.99,8.41,6.51,8.68c8.41,0.82,8.14,7.87,8.14,10.85
		c0,4.35-1.09,10.05-3.53,17.1l-10.58,31.21c-0.82,1.36-1.9,1.36-2.71,0l-15.74-31.48c-4.34-8.95-4.34-13.29-4.34-15.74
		c0-5.16,2.99-11.4,7.6-11.94c3.53-0.82,6.51-4.07,6.51-8.68v-9.5c0-4.07-2.71-6.79-6.79-6.79h-66.49V15.34c0-5.7-3.8-9.5-9.5-9.5
		s-9.23,0-10.04,0.27c-3.8,0.54-7.87,1.08-12.21,1.62c-13.3,1.63-21.98,2.72-26.05,2.99c-4.07,0.27-7.6,0.54-10.58,0.54
		c-4.07,0-6.79,2.71-6.79,6.79v9.5c0,4.61,2.99,8.41,6.51,8.68c10.85,0.82,17.1,7.6,17.1,27.96v25.54
		C163.69,63.82,143.65,47,112.78,47c-15.2,0-27.41,6.24-35.82,15.2c-0.81,0.81-1.36,1.08-1.9,1.08s-0.82-0.81-0.82-2.17v-2.72
		c0-5.7-3.8-9.5-9.5-9.5h-3.26c-2.44,0-4.62,0.27-6.51,0.82c-14.38,4.07-29.31,7.33-43.69,7.33c-4.07,0-6.79,2.71-6.79,6.78v9.5
		c0,4.61,2.99,8.41,6.51,8.68c10.85,0.82,17.1,4.88,17.1,22.52v97.69c0,20.36-6.24,27.14-17.1,27.96c-3.53,0.27-6.51,4.07-6.51,8.68
		v9.5c0,4.62,2.71,6.79,6.79,6.79H96.5c4.07,0,6.78-2.17,6.78-6.79v-9.5c0-4.61-2.99-8.41-6.51-8.68c-13.3-0.82-17.1-7.6-17.1-27.96
		v-15.74c0-0.82,0.27-1.09,0.54-1.09c0.27,0,0.54,0,0.82,0.27c7.33,4.08,14.93,6.24,23.61,6.24c34.98,0,58.24-17.72,67.32-44.78
		v12.03c0,20.36-6.24,27.13-17.1,27.95c-3.53,0.27-6.51,4.08-6.51,8.69v9.5c0,4.61,2.72,6.79,6.79,6.79h85.21
		c4.07,0,6.78-2.17,6.78-6.79v-9.5c0-4.61-2.99-8.42-6.51-8.69c-10.86-0.82-17.1-7.59-17.1-27.95v-37.2
		c1.19,2.39,2.43,4.84,3.81,7.35l51.01,91.18c0.54,1.08,0.82,2.17,0.82,3.25c0,0.54,0,1.09-0.27,1.9
		c-5.43,16.28-12.48,24.69-18.18,24.69c-10.85,0-9.22-25.23-32.56-25.23c-17.37,0-27.14,12.48-27.14,26.05
		c0,16.28,13.02,31.48,40.98,31.48c32.29,0,52.1-33.1,65.67-69.2l32.84-84.13c1.1-2.95,2.32-6.06,3.7-9.09
		c-0.25,2.05-0.42,4.14-0.42,6.28c0,19.27,9.77,34.73,27.95,43.42c-16.01,5.16-30.93,14.11-30.93,32.83
		c0,13.3,6.79,22.25,20.35,27.41c-19.81,4.61-31.48,13.84-31.48,24.69c0,20.63,24.42,30.39,68.92,30.39
		c33.65,0,87.92-11.13,87.92-54.81c0-6.67-1.15-12.87-3.99-18.37h55.3c4.08,0,6.79-2.17,6.79-6.79v-9.5c0-4.61-2.98-8.42-6.51-8.69
		c-7.87-0.82-11.67-7.59-11.67-27.95v-35.01c0-1.63,0.54-2.71,1.63-3.53c11.13-10.04,19-13.84,24.15-13.84
		c9.77,0,11.4,11.4,11.4,22.52v29.85c0,20.36-3.53,27.13-8.96,27.95c-3.53,0.82-6.51,4.08-6.51,8.69v9.5c0,4.61,2.72,6.79,6.79,6.79
		h77.07c4.07,0,6.79-2.17,6.79-6.79v-9.5C638.74,191.18,635.76,187.38,632.23,187.11z M105.18,170.2
		c-14.11,0-25.51-22.25-25.51-35.01v-27.68c0-24.15,10.04-38.54,20.62-38.54c14.93,0,23.88,23.61,23.88,57.26
		C124.17,150.93,118.2,170.2,105.18,170.2z M405.36,91.23c9.23,0,14.93,22.25,14.93,41.78c0,15.2-3.53,29.04-11.13,29.04
		c-9.22,0-14.92-22.52-14.92-42.06C394.23,104.8,397.76,91.23,405.36,91.23z M380.12,184.57c0-4.07,5.16-6.78,17.1-7.87
		c3.25,0.27,6.51,0.54,10.04,0.54c39.35,0,63.5-21.44,63.5-50.75c0-6.03-1-11.7-2.91-16.92c4.52,2.93,7,8.64,7,19.73v29.85
		c0,20.36-6.24,27.13-17.1,27.95c-2.59,0.2-4.85,2.32-5.9,5.24c-9.02-2.03-20.21-3.15-34.01-3.15
		C389.89,189.19,380.12,188.65,380.12,184.57z M413.22,268.7c-22.52,0-31.21-7.06-31.21-16.82c0-6.24,4.34-12.48,11.67-16.55h4.61
		c33.65,0,45.86,4.88,45.86,15.47C444.16,260.56,430.59,268.7,413.22,268.7z"/>
	<path class="st1" d="M667.26,169.2c-13.29,0-21.98,9.5-21.98,22.79c0,13.3,8.69,22.8,21.98,22.8c13.03,0,21.71-9.5,21.71-22.8
		C688.97,178.7,680.29,169.2,667.26,169.2z"/>
</g>
<g>
	<path d="M-812.92,173.48V88.52L-837.7,71.7l-35.4,6.19l-24.72,18.11l-4.48-24.3l-73.46,13.28v4.49l-23.04-10.65l10.04-8.96
		l25.78,5.97l18.6-9.44V39.84l-28.32-10.62l-29.21,16.82l-10.46,30.89l-34.68,1.86l-18.53,8.69V77.28h-55.81l1.77,21.86l13.28,8.85
		c0,0-15.93,48.68-17.85,53.42c-1.92,4.74-20.21-53.42-20.21-53.42l12.39-8.85V77.28h-74.34V4.94l-73.46,4.82v23.01l22.13,1.77
		l-1.94,51.16l-31.69-31.69l-38.94-4.42l-21.64,16.36l-4.02-16.36l-66.53,10.62v23.01l20.51,7.96v132.75l-20.51,11.5v20.36h95.74
		l3.54-20.36l-23.9-11.5l-0.21-34.79l24.97,5.43l46.05-14.89l14.21-30.01l-0.94,24.7L-1279.8,185v26.21h93.19l0.27-24.97
		l-20.01-10.09v-56.99l57.73,102.22l-3.75,20.25l-18.59,13.28l-8.85-18.59l-15.05-11.51l-23.9,9.74l-6.19,28.32l35.4,23.28
		l36.29-15.32l22.13-31.86l48.41-107.85l4.69,21.12l22.78,18.58l-15.7,3.55l-12.39,15.93l0.89,24.78l16.62,15.98l-17.5,4.37
		l-13.97,20.32c0,0,27.25,23.93,31.73,24.82c4.48,0.88,46.85,5.58,46.85,5.58l53.1-15.32l21.24-23.01v-29.21l-8.08-5.65h64.67
		l0.27-24.97l-12.14-6.55l2.1-59.93l24.15-13.84l10.92,11.82l-0.89,61.95l-14.16,8.85l-0.89,22.13h89.39v-25.67h-15.05
		L-812.92,173.48z M-1305.47,140.2l-3.32,22.57l-12.98,10l-15.64-8.67l-11.21-21.9v-41.15l7.3-21.24l14.66-8.25l15.21,11.57
		l5.97,21.24V140.2z M-1032.88,113.3l11.29-21.17l16.15,12.32v35.4l-7.97,22.13l-8.18-4.29l-11.29-8.99V113.3z M-985.09,257.56
		l-14.16,8.85l-32.75,1.78l-11.51-8.86l-1.43-6.56l7.62-16.55h38.06l14.16,9.84V257.56z M-975.72,196.69l-58.05-6.39l-13.06-4.83
		l17.1-7.87l36.68-4.12l29.21-22.13l3.54-33.63l-3.25-5.96l7.27,3.31l2.66,61.95l-22.13,12.39l1.22,8.09L-975.72,196.69z"/>
	<polygon points="-753.22,174.93 -770.92,174.93 -781.66,194.33 -777.11,209.45 -759.68,217.13 -744.37,212.99 -737.97,199.71 
		-737.97,184.67 	"/>
</g>
<g>
	<path class="st0" d="M-1526.39,173.34V88.38l-24.78-16.82l-35.4,6.19l-24.72,18.11l-4.48-24.3l-73.46,13.28v4.49l-23.04-10.65
		l10.04-8.96l25.78,5.97l18.6-9.44V39.71l-28.32-10.62l-29.21,16.82l-10.46,30.89l-34.68,1.86l-18.53,8.69V77.15h-55.81l1.77,21.86
		l13.28,8.85c0,0-15.93,48.68-17.85,53.42c-1.92,4.74-20.21-53.42-20.21-53.42l12.39-8.85V77.15h-74.34V4.81l-73.46,4.82v23.01
		l22.13,1.77l-1.94,51.16l-31.69-31.69l-38.94-4.42l-21.64,16.36l-4.02-16.36l-66.53,10.62v23.01l20.51,7.96V223.8l-20.51,11.5
		v20.36h95.74l3.54-20.36l-23.9-11.5l-0.21-34.79l24.97,5.43l46.05-14.89l14.21-30.01l-0.94,24.7l-16.82,10.62v26.21h93.19
		l0.27-24.97l-20.01-10.09v-56.99l57.73,102.22l-3.75,20.25l-18.59,13.28l-8.85-18.59l-15.05-11.51l-23.9,9.74l-6.19,28.32
		l35.4,23.28l36.29-15.32l22.13-31.86l48.41-107.85l4.69,21.12l22.78,18.58l-15.7,3.55l-12.39,15.93l0.89,24.78l16.62,15.98
		l-17.5,4.37l-13.97,20.32c0,0,27.25,23.93,31.73,24.82c4.48,0.88,46.85,5.58,46.85,5.58l53.1-15.32l21.24-23.01v-29.21l-8.08-5.65
		h64.67l0.27-24.97l-12.14-6.55l2.1-59.93l24.15-13.84l10.92,11.82l-0.89,61.95l-14.16,8.85l-0.89,22.13h89.39v-25.67h-15.05
		L-1526.39,173.34z M-2018.94,140.07l-3.32,22.57l-12.98,10l-15.64-8.67l-11.21-21.9V100.9l7.3-21.24l14.66-8.25l15.21,11.57
		l5.97,21.24V140.07z M-1746.36,113.16l11.29-21.17l16.15,12.32v35.4l-7.97,22.13l-8.18-4.29l-11.29-8.99V113.16z M-1698.57,257.42
		l-14.16,8.85l-32.75,1.78l-11.51-8.86l-1.43-6.56l7.62-16.55h38.06l14.16,9.84V257.42z M-1689.19,196.55l-58.05-6.39l-13.06-4.83
		l17.1-7.87l36.68-4.12l29.21-22.13l3.54-33.63l-3.25-5.96l7.27,3.31l2.66,61.95l-22.13,12.39l1.22,8.09L-1689.19,196.55z"/>
	<polygon class="st0" points="-1466.69,174.79 -1484.39,174.79 -1495.14,194.19 -1490.59,209.31 -1473.16,216.99 -1457.84,212.85 
		-1451.45,199.57 -1451.45,184.53 	"/>
</g>
</svg>
